<svg width="33" height="33" viewBox="0 0 33 33" fill="none" xmlns="http://www.w3.org/2000/svg">
<path fill-rule="evenodd" clip-rule="evenodd" d="M26.8481 30.7168C30.5998 27.6922 33 23.0585 33 17.8643C33 8.75156 25.6127 1.36426 16.5 1.36426C7.3873 1.36426 0 8.75156 0 17.8643C0 23.288 2.61688 28.1005 6.65689 31.108C7.08752 27.9202 8.62309 23.6839 13.6106 22.436C11.0577 21.1682 9.31242 18.5946 9.31242 15.6153C9.31242 11.5585 12.5598 8.22744 16.6738 7.97347C17.8069 7.85742 18.7789 8.04381 19.4196 8.24801C19.8939 8.36764 20.3663 8.56928 20.8303 8.83134C21.7517 9.30219 22.5658 9.94572 23.2268 10.718C25.478 12.9554 27.1303 15.8294 27.1303 15.8294C26.9392 15.8633 26.7478 15.892 26.5562 15.9157C25.1223 16.0113 21.5005 16.0281 18.0129 14.2321C16.4108 13.5095 12.2429 10.733 12.2429 10.733C12.0781 10.8934 16.9226 17.4384 24.931 16.9328C24.4935 19.3999 22.8472 21.4532 20.605 22.5121C23.0832 23.2653 26.0964 25.7029 26.8481 30.7168ZM17.0491 23.6517L13.6105 22.4347L14.8869 25.0844L17.0491 23.6518L19.2112 25.097L20.6048 22.5107L17.0491 23.6517ZM12.2429 11.3923C12.2429 11.3923 12.5816 16.755 9.7682 17.2494C9.7682 17.2494 14.4521 17.1467 12.2429 11.3923Z" fill="#0083C2"/>
</svg>
